<mxfile host="app.diagrams.net" modified="2021-12-22T21:35:17.677Z" agent="5.0 (Windows NT 6.1; Win64; x64) AppleWebKit/537.36 (KHTML, like Gecko) Chrome/96.0.4664.110 Safari/537.36" etag="bY4lC8TgGsuOIZ8kykGF" version="16.0.3" type="github">
  <diagram id="aShKJb1EcJVqntHxSxEi" name="Page-1">
    <mxGraphModel dx="661" dy="741" grid="1" gridSize="10" guides="1" tooltips="1" connect="1" arrows="1" fold="1" page="1" pageScale="1" pageWidth="827" pageHeight="1169" math="0" shadow="0">
      <root>
        <mxCell id="0" />
        <mxCell id="1" parent="0" />
        <mxCell id="8L_f6q-vc3C_Bcib5PFj-27" value="" style="edgeStyle=orthogonalEdgeStyle;rounded=0;orthogonalLoop=1;jettySize=auto;html=1;exitX=0.5;exitY=1;exitDx=0;exitDy=0;" parent="1" source="8L_f6q-vc3C_Bcib5PFj-31" edge="1">
          <mxGeometry relative="1" as="geometry">
            <mxPoint x="989.0285714285715" y="45" as="sourcePoint" />
            <mxPoint x="989" y="60" as="targetPoint" />
          </mxGeometry>
        </mxCell>
        <mxCell id="8L_f6q-vc3C_Bcib5PFj-31" value="начало" style="rounded=1;whiteSpace=wrap;html=1;" parent="1" vertex="1">
          <mxGeometry x="949" width="81" height="30" as="geometry" />
        </mxCell>
        <mxCell id="IL574nIS1ITczs5gziKt-34" value="" style="edgeStyle=orthogonalEdgeStyle;rounded=0;orthogonalLoop=1;jettySize=auto;html=1;entryX=0.5;entryY=0;entryDx=0;entryDy=0;" parent="1" edge="1">
          <mxGeometry relative="1" as="geometry">
            <mxPoint x="1003.51" y="863" as="targetPoint" />
            <Array as="points">
              <mxPoint x="1003.51" y="1100" />
              <mxPoint x="871.51" y="1100" />
              <mxPoint x="871.51" y="840" />
              <mxPoint x="1003.51" y="840" />
            </Array>
          </mxGeometry>
        </mxCell>
        <mxCell id="fvvWOnK4h9Uza0Eckh0a-3" value="" style="edgeStyle=orthogonalEdgeStyle;rounded=0;orthogonalLoop=1;jettySize=auto;html=1;" parent="1" target="fvvWOnK4h9Uza0Eckh0a-2" edge="1">
          <mxGeometry relative="1" as="geometry">
            <mxPoint x="990.3" y="155" as="sourcePoint" />
          </mxGeometry>
        </mxCell>
        <mxCell id="fvvWOnK4h9Uza0Eckh0a-5" value="" style="edgeStyle=orthogonalEdgeStyle;rounded=0;orthogonalLoop=1;jettySize=auto;html=1;" parent="1" source="fvvWOnK4h9Uza0Eckh0a-2" edge="1">
          <mxGeometry relative="1" as="geometry">
            <mxPoint x="990" y="230" as="targetPoint" />
          </mxGeometry>
        </mxCell>
        <mxCell id="fvvWOnK4h9Uza0Eckh0a-2" value="b = a.find_last_of(&#39; &#39;);" style="rounded=0;whiteSpace=wrap;html=1;" parent="1" vertex="1">
          <mxGeometry x="930" y="180" width="120.5" height="30" as="geometry" />
        </mxCell>
        <mxCell id="fvvWOnK4h9Uza0Eckh0a-8" value="" style="edgeStyle=orthogonalEdgeStyle;rounded=0;orthogonalLoop=1;jettySize=auto;html=1;" parent="1" source="fvvWOnK4h9Uza0Eckh0a-4" target="fvvWOnK4h9Uza0Eckh0a-7" edge="1">
          <mxGeometry relative="1" as="geometry" />
        </mxCell>
        <mxCell id="fvvWOnK4h9Uza0Eckh0a-4" value="string last = a.substr(++b),word;" style="rounded=0;whiteSpace=wrap;html=1;" parent="1" vertex="1">
          <mxGeometry x="929.5" y="230" width="120.5" height="30" as="geometry" />
        </mxCell>
        <mxCell id="fvvWOnK4h9Uza0Eckh0a-10" value="" style="edgeStyle=orthogonalEdgeStyle;rounded=0;orthogonalLoop=1;jettySize=auto;html=1;" parent="1" source="fvvWOnK4h9Uza0Eckh0a-7" target="fvvWOnK4h9Uza0Eckh0a-9" edge="1">
          <mxGeometry relative="1" as="geometry" />
        </mxCell>
        <mxCell id="fvvWOnK4h9Uza0Eckh0a-15" style="edgeStyle=orthogonalEdgeStyle;rounded=0;orthogonalLoop=1;jettySize=auto;html=1;entryX=0.5;entryY=0;entryDx=0;entryDy=0;" parent="1" source="fvvWOnK4h9Uza0Eckh0a-7" target="fvvWOnK4h9Uza0Eckh0a-23" edge="1">
          <mxGeometry relative="1" as="geometry">
            <mxPoint x="1010" y="860" as="targetPoint" />
            <Array as="points">
              <mxPoint x="1120" y="343" />
              <mxPoint x="1120" y="820" />
              <mxPoint x="990" y="820" />
              <mxPoint x="990" y="850" />
            </Array>
          </mxGeometry>
        </mxCell>
        <mxCell id="fvvWOnK4h9Uza0Eckh0a-7" value="start &amp;lt;= a.length()" style="rhombus;whiteSpace=wrap;html=1;rounded=0;" parent="1" vertex="1">
          <mxGeometry x="904.5" y="320" width="170" height="45" as="geometry" />
        </mxCell>
        <mxCell id="fvvWOnK4h9Uza0Eckh0a-12" value="" style="edgeStyle=orthogonalEdgeStyle;rounded=0;orthogonalLoop=1;jettySize=auto;html=1;" parent="1" source="fvvWOnK4h9Uza0Eckh0a-9" target="fvvWOnK4h9Uza0Eckh0a-11" edge="1">
          <mxGeometry relative="1" as="geometry" />
        </mxCell>
        <mxCell id="fvvWOnK4h9Uza0Eckh0a-9" value="finish = a.find(&#39; &#39;, start)" style="whiteSpace=wrap;html=1;rounded=0;" parent="1" vertex="1">
          <mxGeometry x="929.5" y="390" width="120" height="30" as="geometry" />
        </mxCell>
        <mxCell id="fvvWOnK4h9Uza0Eckh0a-14" value="" style="edgeStyle=orthogonalEdgeStyle;rounded=0;orthogonalLoop=1;jettySize=auto;html=1;" parent="1" source="fvvWOnK4h9Uza0Eckh0a-11" target="fvvWOnK4h9Uza0Eckh0a-13" edge="1">
          <mxGeometry relative="1" as="geometry" />
        </mxCell>
        <mxCell id="fvvWOnK4h9Uza0Eckh0a-11" value="size = finish - start" style="whiteSpace=wrap;html=1;rounded=0;" parent="1" vertex="1">
          <mxGeometry x="929.5" y="450" width="120" height="30" as="geometry" />
        </mxCell>
        <mxCell id="fvvWOnK4h9Uza0Eckh0a-17" value="" style="edgeStyle=orthogonalEdgeStyle;rounded=0;orthogonalLoop=1;jettySize=auto;html=1;" parent="1" source="fvvWOnK4h9Uza0Eckh0a-13" target="fvvWOnK4h9Uza0Eckh0a-16" edge="1">
          <mxGeometry relative="1" as="geometry" />
        </mxCell>
        <mxCell id="fvvWOnK4h9Uza0Eckh0a-13" value="word = a.substr(start, size)" style="whiteSpace=wrap;html=1;rounded=0;" parent="1" vertex="1">
          <mxGeometry x="930" y="520" width="120" height="30" as="geometry" />
        </mxCell>
        <mxCell id="fvvWOnK4h9Uza0Eckh0a-19" value="" style="edgeStyle=orthogonalEdgeStyle;rounded=0;orthogonalLoop=1;jettySize=auto;html=1;" parent="1" source="fvvWOnK4h9Uza0Eckh0a-16" target="fvvWOnK4h9Uza0Eckh0a-18" edge="1">
          <mxGeometry relative="1" as="geometry" />
        </mxCell>
        <mxCell id="fvvWOnK4h9Uza0Eckh0a-16" value="start = a.find_first_not_of(&#39; &#39;, finish)" style="whiteSpace=wrap;html=1;rounded=0;" parent="1" vertex="1">
          <mxGeometry x="889.5" y="585" width="200" height="30" as="geometry" />
        </mxCell>
        <mxCell id="fvvWOnK4h9Uza0Eckh0a-21" value="" style="edgeStyle=orthogonalEdgeStyle;rounded=0;orthogonalLoop=1;jettySize=auto;html=1;" parent="1" source="fvvWOnK4h9Uza0Eckh0a-18" target="fvvWOnK4h9Uza0Eckh0a-20" edge="1">
          <mxGeometry relative="1" as="geometry" />
        </mxCell>
        <mxCell id="fvvWOnK4h9Uza0Eckh0a-18" value="!(word == last) &amp;amp;&amp;amp;&lt;br&gt;&amp;nbsp;!(word.size() % 2)" style="rhombus;whiteSpace=wrap;html=1;rounded=0;" parent="1" vertex="1">
          <mxGeometry x="915.13" y="650" width="149.75" height="80" as="geometry" />
        </mxCell>
        <mxCell id="fvvWOnK4h9Uza0Eckh0a-22" style="edgeStyle=orthogonalEdgeStyle;rounded=0;orthogonalLoop=1;jettySize=auto;html=1;" parent="1" source="fvvWOnK4h9Uza0Eckh0a-20" edge="1">
          <mxGeometry relative="1" as="geometry">
            <mxPoint x="990" y="320" as="targetPoint" />
            <Array as="points">
              <mxPoint x="870" y="780" />
              <mxPoint x="870" y="300" />
              <mxPoint x="990" y="300" />
            </Array>
          </mxGeometry>
        </mxCell>
        <mxCell id="fvvWOnK4h9Uza0Eckh0a-20" value="word" style="shape=document;whiteSpace=wrap;html=1;boundedLbl=1;rounded=0;" parent="1" vertex="1">
          <mxGeometry x="954.49" y="760" width="70.01" height="40" as="geometry" />
        </mxCell>
        <mxCell id="fvvWOnK4h9Uza0Eckh0a-23" value="конец" style="rounded=1;whiteSpace=wrap;html=1;" parent="1" vertex="1">
          <mxGeometry x="949" y="850" width="81" height="30" as="geometry" />
        </mxCell>
        <mxCell id="Y2VPXqtdrt-8o9NJXkg0-1" value="1" style="text;html=1;align=center;verticalAlign=middle;resizable=0;points=[];autosize=1;strokeColor=none;fillColor=none;" parent="1" vertex="1">
          <mxGeometry x="1075" y="5" width="20" height="20" as="geometry" />
        </mxCell>
        <mxCell id="Y2VPXqtdrt-8o9NJXkg0-2" value="2" style="text;html=1;align=center;verticalAlign=middle;resizable=0;points=[];autosize=1;strokeColor=none;fillColor=none;" parent="1" vertex="1">
          <mxGeometry x="1074.5" y="60" width="20" height="20" as="geometry" />
        </mxCell>
        <mxCell id="Y2VPXqtdrt-8o9NJXkg0-3" value="3" style="text;html=1;align=center;verticalAlign=middle;resizable=0;points=[];autosize=1;strokeColor=none;fillColor=none;" parent="1" vertex="1">
          <mxGeometry x="1074.5" y="120" width="20" height="20" as="geometry" />
        </mxCell>
        <mxCell id="Y2VPXqtdrt-8o9NJXkg0-4" value="4" style="text;html=1;align=center;verticalAlign=middle;resizable=0;points=[];autosize=1;strokeColor=none;fillColor=none;" parent="1" vertex="1">
          <mxGeometry x="1075" y="185" width="20" height="20" as="geometry" />
        </mxCell>
        <mxCell id="Y2VPXqtdrt-8o9NJXkg0-5" value="5" style="text;html=1;align=center;verticalAlign=middle;resizable=0;points=[];autosize=1;strokeColor=none;fillColor=none;" parent="1" vertex="1">
          <mxGeometry x="1070" y="235" width="20" height="20" as="geometry" />
        </mxCell>
        <mxCell id="Y2VPXqtdrt-8o9NJXkg0-6" value="7" style="text;html=1;align=center;verticalAlign=middle;resizable=0;points=[];autosize=1;strokeColor=none;fillColor=none;" parent="1" vertex="1">
          <mxGeometry x="1075" y="390" width="20" height="20" as="geometry" />
        </mxCell>
        <mxCell id="Y2VPXqtdrt-8o9NJXkg0-7" value="8" style="text;html=1;align=center;verticalAlign=middle;resizable=0;points=[];autosize=1;strokeColor=none;fillColor=none;" parent="1" vertex="1">
          <mxGeometry x="1074.5" y="450" width="20" height="20" as="geometry" />
        </mxCell>
        <mxCell id="Y2VPXqtdrt-8o9NJXkg0-9" value="9" style="text;html=1;align=center;verticalAlign=middle;resizable=0;points=[];autosize=1;strokeColor=none;fillColor=none;" parent="1" vertex="1">
          <mxGeometry x="1079.5" y="520" width="20" height="20" as="geometry" />
        </mxCell>
        <mxCell id="Y2VPXqtdrt-8o9NJXkg0-10" value="10" style="text;html=1;align=center;verticalAlign=middle;resizable=0;points=[];autosize=1;strokeColor=none;fillColor=none;" parent="1" vertex="1">
          <mxGeometry x="1090" y="590" width="30" height="20" as="geometry" />
        </mxCell>
        <mxCell id="Y2VPXqtdrt-8o9NJXkg0-11" value="6" style="text;html=1;align=center;verticalAlign=middle;resizable=0;points=[];autosize=1;strokeColor=none;fillColor=none;" parent="1" vertex="1">
          <mxGeometry x="1065" y="320" width="20" height="20" as="geometry" />
        </mxCell>
        <mxCell id="Y2VPXqtdrt-8o9NJXkg0-12" value="11" style="text;html=1;align=center;verticalAlign=middle;resizable=0;points=[];autosize=1;strokeColor=none;fillColor=none;" parent="1" vertex="1">
          <mxGeometry x="1069.5" y="680" width="30" height="20" as="geometry" />
        </mxCell>
        <mxCell id="Y2VPXqtdrt-8o9NJXkg0-13" value="12" style="text;html=1;align=center;verticalAlign=middle;resizable=0;points=[];autosize=1;strokeColor=none;fillColor=none;" parent="1" vertex="1">
          <mxGeometry x="1030" y="770" width="30" height="20" as="geometry" />
        </mxCell>
        <mxCell id="h75GJriU3Pis39xlNMsd-2" value="" style="edgeStyle=orthogonalEdgeStyle;rounded=0;orthogonalLoop=1;jettySize=auto;html=1;entryX=0.5;entryY=0;entryDx=0;entryDy=0;" parent="1" source="h75GJriU3Pis39xlNMsd-1" edge="1">
          <mxGeometry relative="1" as="geometry">
            <mxPoint x="990.25" y="120" as="targetPoint" />
          </mxGeometry>
        </mxCell>
        <mxCell id="h75GJriU3Pis39xlNMsd-1" value="start = 0, finish = 0, size = 0" style="whiteSpace=wrap;html=1;" parent="1" vertex="1">
          <mxGeometry x="930.5" y="60" width="120" height="30" as="geometry" />
        </mxCell>
        <mxCell id="h75GJriU3Pis39xlNMsd-3" value="13" style="text;html=1;align=center;verticalAlign=middle;resizable=0;points=[];autosize=1;strokeColor=none;fillColor=none;" parent="1" vertex="1">
          <mxGeometry x="1035" y="860" width="30" height="20" as="geometry" />
        </mxCell>
        <mxCell id="qv9bzbOfWFXBeLBr8KnO-1" value="a" style="shape=parallelogram;perimeter=parallelogramPerimeter;whiteSpace=wrap;html=1;fixedSize=1;" vertex="1" parent="1">
          <mxGeometry x="930.5" y="120" width="120" height="40" as="geometry" />
        </mxCell>
      </root>
    </mxGraphModel>
  </diagram>
</mxfile>
